<svg width="80" height="80" viewBox="0 0 80 80" fill="none" xmlns="http://www.w3.org/2000/svg">
<path d="M63.3335 46.6667V25L46.6668 13.3333L30.0002 25V30H23.3335V21.6667L46.6668 5L70.0002 21.6667V46.6667H63.3335ZM48.3335 26.6667H51.6668V23.3333H48.3335V26.6667ZM41.6668 26.6667H45.0002V23.3333H41.6668V26.6667ZM48.3335 33.3333H51.6668V30H48.3335V33.3333ZM41.6668 33.3333H45.0002V30H41.6668V33.3333ZM46.6668 75L23.3335 68.5V73.3333H3.3335V36.6667H29.8335L50.5002 44.3333C52.3335 45 53.8202 46.1667 54.9602 47.8333C56.0979 49.5 56.6668 51.3333 56.6668 53.3333H63.3335C66.1113 53.3333 68.4724 54.25 70.4168 56.0833C72.3613 57.9167 73.3335 60.3333 73.3335 63.3333V66.6667L46.6668 75ZM10.0002 66.6667H16.6668V43.3333H10.0002V66.6667ZM46.5002 68L66.3335 61.8333C66.1668 61.2222 65.7913 60.7633 65.2068 60.4567C64.6246 60.1522 64.0002 60 63.3335 60H47.3335C45.6113 60 44.0557 59.8889 42.6668 59.6667C41.2779 59.4444 39.7779 59.0556 38.1668 58.5L32.4168 56.5L34.3335 50.1667L41.0002 52.3333C42.0002 52.6667 43.1668 52.9167 44.5002 53.0833C45.8335 53.25 47.6668 53.3333 50.0002 53.3333C50.0002 52.7222 49.8202 52.1389 49.4602 51.5833C49.0979 51.0278 48.6668 50.6667 48.1668 50.5L28.6668 43.3333H23.3335V61.6667L46.5002 68Z" fill="#095A4A"/>
</svg>
